<svg id="Layer_3" data-name="Layer 3" xmlns="http://www.w3.org/2000/svg" viewBox="0 0 233.51233 233.51233"><defs><style>.cls-1{fill:#00d932;}.cls-2{fill:#fcd819;}.cls-3{fill:#dfc30f;}.cls-4{fill:#f1d20b;}.cls-5{fill:#fce519;}.cls-6{fill:#ef7f3b;}.cls-7{fill:#ef6d3b;}.cls-8{fill:#fcec19;}.cls-9{fill:#ffdf20;}.cls-10{fill:#e4cb14;}.cls-11{fill:#fcec35;}.cls-12{fill:#fcec58;}</style></defs><title>quacksounds-v3</title><rect class="cls-1" width="233.51233" height="233.51233" rx="116.75605"/><polygon class="cls-2" points="85.776 110.231 76.406 97.024 75.107 69.96 86.149 50.691 105.202 43.546 120.79 43.546 135.946 47.876 147.495 69.96 155.609 72.756 169.702 68.913 159.88 89.839 169.702 103.291 152.107 104.337 147.495 115.358 169.702 143.001 163.801 171.452 152.4 179.504 135.946 190.241 84.711 190.956 43.018 164.116 38.723 133.806 39.973 97.067 65.644 111.611 85.776 110.231"/><polygon class="cls-3" points="86.149 50.691 105.202 43.546 91.562 66.712 75.107 69.96 86.149 50.691"/><polygon class="cls-4" points="105.202 43.546 120.79 43.546 135.946 47.876 125.121 47.876 105.202 43.546"/><polygon class="cls-3" points="91.562 66.712 91.562 98.756 76.406 97.024 75.107 69.96 91.562 66.712"/><polygon class="cls-4" points="91.562 98.756 111.047 71.475 91.562 66.712 91.562 98.756"/><polygon class="cls-3" points="91.562 66.712 125.121 47.876 105.202 43.546 91.562 66.712"/><polygon class="cls-4" points="91.562 66.712 111.047 71.475 125.121 47.876 91.562 66.712"/><polygon class="cls-2" points="111.047 71.475 126.356 94.75 125.121 47.876 111.047 71.475"/><polygon class="cls-3" points="125.121 47.876 136.819 73.824 126.356 94.75 125.121 47.876"/><polygon class="cls-3" points="125.121 47.876 135.946 47.876 147.495 69.96 125.121 47.876"/><polygon class="cls-3" points="136.819 73.824 147.495 69.96 125.121 47.876 136.819 73.824"/><polygon class="cls-5" points="91.562 98.756 126.356 94.75 111.047 71.475 91.562 98.756"/><polygon class="cls-6" points="147.495 69.96 155.609 72.756 126.356 94.75 136.819 73.824 147.495 69.96"/><polygon class="cls-7" points="155.609 72.756 169.702 68.913 159.88 89.839 169.702 103.291 140.983 104.999 126.356 94.75 155.609 72.756"/><polyline class="cls-2" points="76.406 97.024 77.635 98.756 88.635 114.262 135.097 118.885 126.356 94.75 91.562 98.756 76.406 97.024 91.562 98.756"/><polyline class="cls-8" points="126.356 94.75 135.097 118.885 126.356 94.75"/><polyline class="cls-8" points="140.983 104.999 135.097 118.885 126.356 94.75 140.983 104.999"/><polyline class="cls-3" points="140.983 104.999 152.107 104.337 147.495 115.358 135.097 118.885 140.983 104.999"/><polygon class="cls-9" points="88.635 114.262 88.635 147.832 135.097 118.885 88.635 114.262"/><polygon class="cls-2" points="135.097 118.885 156.644 148.727 169.702 143.001 147.495 115.358 135.097 118.885"/><polygon class="cls-8" points="135.097 118.885 88.635 147.832 156.644 148.727 135.097 118.885"/><polygon class="cls-10" points="169.702 143.001 163.801 171.452 152.4 179.504 156.644 148.727 169.702 143.001"/><polygon class="cls-8" points="156.644 148.727 92.942 178.252 152.4 179.504 156.644 148.727"/><polygon class="cls-2" points="88.635 147.832 92.942 178.252 156.644 148.727 88.635 147.832"/><polygon class="cls-10" points="92.942 178.252 43.018 164.116 88.635 147.832 92.942 178.252"/><polygon class="cls-3" points="43.018 164.116 84.711 190.956 92.942 178.252 43.018 164.116"/><polygon class="cls-3" points="84.711 190.956 135.946 190.241 152.4 179.504 92.942 178.252 84.711 190.956"/><polygon class="cls-2" points="88.635 147.832 38.723 133.806 43.018 164.116 88.635 147.832"/><polygon class="cls-2" points="88.635 147.832 48.565 116.339 38.723 133.806 88.635 147.832"/><polygon class="cls-8" points="48.565 116.339 88.635 114.262 88.635 147.832 48.565 116.339"/><polygon class="cls-11" points="48.565 116.339 65.644 111.611 85.776 110.231 88.635 114.262 48.565 116.339"/><polygon class="cls-2" points="38.723 133.806 48.565 116.339 39.973 97.067 38.723 133.806"/><polygon class="cls-12" points="39.973 97.067 65.644 111.611 48.565 116.339 39.973 97.067"/><rect x="96.04966" y="69.19663" width="21.24898" height="21.24898"/><rect x="102.48217" y="60.85" width="8.56527" height="8.56527"/><polygon points="111.047 60.85 118.571 46.452 111.495 44.914 102.482 60.85 111.047 60.85"/><polygon points="111.495 44.914 120.79 43.546 125.579 44.914 118.571 46.452 111.495 44.914"/><path class="cls-2" d="M396.849,135.34649" transform="translate(-311.07351 -25.11527)"/></svg>