<svg id="Layer_2" data-name="Layer 2" xmlns="http://www.w3.org/2000/svg" viewBox="0 0 219.79 219.79"><defs><style>.cls-1{fill:#00d932;}.cls-2{fill:#c3b2cb;}.cls-3{fill:#fcd932;}.cls-4{fill:#66bfc6;}.cls-5{fill:#5ebfc6;}.cls-6{fill:#fff;}.cls-7{fill:#fc7632;}.cls-8{fill:#9a59ae;}</style></defs><title>quacksounds</title><rect class="cls-1" width="219.79" height="219.79" rx="109.89"/><path class="cls-2" d="M154.17,101.48c.64-4.82-1.52-8.87-3.12-11.47-4.42-7.23-12.22-20-21.58-18.48-4.19.66-7.75,3.87-7.39,5.06.29,1,3,.11,8.33,1.65,1.32.38,2.52.82,5.28,1.57,1.75.47,2.71.68,3.1.78,4.82,1.27,9.22,9.07,11.4,16.15,1.49,4.83,1.74,8.64,2.6,8.62C153.47,105.34,154,103,154.17,101.48Z" transform="translate(-13.2 -35.48)"/><path d="M153.43,98.73a12.09,12.09,0,0,0-9.22-2.25c-5.79,1.2-8.82,7.15-9.68,11.25-1,4.63-.26,12.24,5.85,15.74a13.44,13.44,0,0,0,15.52-2C162.28,115.31,159.72,103.43,153.43,98.73Z" transform="translate(-13.2 -35.48)"/><path class="cls-3" d="M72.79,133.75c-3.91,1.51-7.39,5.71-8.6,7.17-.8,1-3.41,4.24-6.94,14.11a96.87,96.87,0,0,0-4.78,17.45c-2.06,12.1-3.09,18.16-.71,20.56,8.06,8.15,56.35-11,55.22-33.47C106.24,144.75,84.1,129.39,72.79,133.75Z" transform="translate(-13.2 -35.48)"/><path class="cls-3" d="M159,156.7c1.85-1.32,5.58.77,11.48,4.06,6.38,3.58,10.12,7.88,13.39,11.72,3.51,4.13,5.27,6.19,6,9.08.61,2.51-.13,2.44,0,12,0,2.43.1,3.44-.47,4.78a9.91,9.91,0,0,1-6.7,5.26C172.17,205.18,152.51,161.31,159,156.7Z" transform="translate(-13.2 -35.48)"/><path class="cls-4" d="M178.8,192.08a3.64,3.64,0,0,0,1.67-3.34c-.13-.76-.6-1.07-1.67-2.16-2.31-2.32-3.68-3.71-3.83-5.49a14,14,0,0,1,.24-2.87,7.7,7.7,0,0,0,2.39-1c.77-.86.06-1.91.72-2.63.16-.17.8-.76,2.87-.24,4.68,1.19,7.92,5.89,8.13,5.74s-1.33-3.43-6-8.85c-5-5.77-10.71-12.3-20.32-14.82-4.15-1.09-6.48-1.7-7.65-.48C150.25,161.31,173.93,194.26,178.8,192.08Z" transform="translate(-13.2 -35.48)"/><path class="cls-5" d="M66.43,161.24A40.14,40.14,0,0,0,55,173.67a32.85,32.85,0,0,0-4.55,15.07,32.47,32.47,0,0,0,12.2,26.53,31,31,0,0,0,7.89,4.31,152.48,152.48,0,0,0,36.81,9.56c9.14,1,22-.4,47.82-3.11a35.76,35.76,0,0,0,13.39-3.59c1.91-1,15.22-8,16-19.12.53-7.43-4.7-14-11.23-22.23-4-5-7.1-7.51-9.33-13.63-1.66-4.57-1-6.22-2.63-9.33-1.09-2.1-4.22-6.84-15.54-10C122.88,141.61,85.91,147,66.43,161.24Z" transform="translate(-13.2 -35.48)"/><path class="cls-6" d="M81.49,142.36c-3.2-4-3.09-9.43-2.87-11,0,0,.12-.91,1-5.74A46.79,46.79,0,0,1,74.8,124c-.76-.38-4.27-2.13-4.06-3.83.11-.94,1.26-1,2.39-2.39s.86-2.52,1.43-4.78c1.18-4.62,4-6.18,3.11-7.65-.54-.92-1.67-.37-3.11-1.67-.15-.14-1.91-1.78-1.67-3.59.2-1.54,1.65-1.76,4.78-4.78,2.71-2.62,2.85-3.64,2.87-4.07.06-1.15-.57-1.26-1.2-3.58s-.12-2.38-.72-4.07c-.69-2-1.49-2.13-1.43-3.34a3.6,3.6,0,0,1,1.91-2.87c1-.5,1.54-.14,2.87-.24,2.28-.17,5-1.54,5.26-3.11.15-1-1-1.32-1.91-3.82-.5-1.32-.79-2.11-.48-2.87.74-1.81,4.24-1.89,5.26-1.92a18.92,18.92,0,0,1,3.83.48c1.32.21,8.11,1.27,8.84-.48.34-.81-.9-1.58-.48-2.63s1.64-1.17,2.87-1.43a10.37,10.37,0,0,1,5,0c2.92.77,3.82,2.44,5,1.91.64-.28.44-.76,1.68-2.63.94-1.42,1.54-2.3,2.63-2.71a3.94,3.94,0,0,1,2.63,0c2.46.92,3.2,4.41,3.34,5.1.5,2.37-.08,3.9.72,4.31.63.32,1.13-.56,2.63-.72A5.33,5.33,0,0,1,132.89,68a9.4,9.4,0,0,1,1.92,3.11c-.59,2.16-.48,2.39-.48,2.39.47,1,2.57.16,3.82,1.44.66.67.27,1.1,1,3.11.52,1.5,1,3.06,2.39,3.82,1,.59,1.54.12,2.63.72a5.38,5.38,0,0,1,2.15,2.87c1.91,4.19,2.53,3.36,3.83,6.69a60.49,60.49,0,0,1,1.67,6.93c.59,2.77.89,4.15,1,5,.21,2.93-.31,4,.48,5.74a7.18,7.18,0,0,0,2.62,2.87c5.35,4.28-4.34,44.75-24.86,47.34-10.51,1.32-17.15-2.47-17.15-2.47-2.93-1.67-7.36-5.19-8.94-3.94-.78.62-.46,2.11-1.12,2.26s-1.21-1.25-3.35-3.31a5.68,5.68,0,0,0-1.78-1.41c-1-.38-1.73-.11-4,.32-3.72.72-4.29.44-4.52.3-1-.62-.88-1.81-1.39-3.22C87.52,145.12,84.43,146,81.49,142.36Z" transform="translate(-13.2 -35.48)"/><path class="cls-6" d="M123.09,161c.07,3.91,5.09,4.68,11,11.72,6,7.21,7.89,14.91,8.85,18.88,4.45,18.61-4.43,33.22.71,36.1.7.39,2.47.11,6-.47,7.92-1.32,11.89-2,14.1-3.35,10.77-6.66,3.25-36.33,2.16-40.64A79,79,0,0,0,159,165.55c-4.94-9.23-7.75-14.47-13.39-16.26C136,146.25,123,154.68,123.09,161Z" transform="translate(-13.2 -35.48)"/><path class="cls-3" d="M102.05,144c-2.53-6.77-7.46-5.7-9.08-12.43-1.23-5.12.08-10.36.48-12,1.21-4.86,2.44-4.55,3.34-8.6,1.61-7.18-2-9.39,0-14.83,1.65-4.56,5.64-7.09,7.65-8.36,2.87-1.82,4.13-1.67,11.72-3.83,10.84-3.08,11-4.17,14.1-3.82,5.92.66,9.9,5.2,12.68,8.36a36.88,36.88,0,0,1,8.36,17.7c2.19,12.47-3.73,15.2-4.3,32.75-.39,12,2.26,14.65-.72,18.89-5.93,8.43-25,5.29-29.88,3.34-.64-.25-2.68-1.15-5.72-2.08-4.07-1.25-4.49-.89-5.52-1.58C101.8,155.36,104.44,150.42,102.05,144Z" transform="translate(-13.2 -35.48)"/><path class="cls-7" d="M130.74,112.77c3.59.11,6.89,2,12.43.72a19.35,19.35,0,0,1,6-.72,10.26,10.26,0,0,1,6,1.67c2.11,1.56,3.86,4.53,3.34,7.18-.37,1.93-1.63,2-2.39,4.54-.55,1.88-.1,2.6-.24,5-.12,2.19-.27,5-1.91,7.17a10.67,10.67,0,0,1-8.84,3.83c-2.13-.14-3-1-5-.48-1.84.42-2.26,1.29-4.07,1.91s-3.36.41-5.74,0c-7.14-1.23-10.71-1.85-13.14-3.11-3.63-1.87-6-3.11-6.94-5.5C107.4,127.64,120.06,112.45,130.74,112.77Z" transform="translate(-13.2 -35.48)"/><path class="cls-7" d="M254.34,102.91" transform="translate(-13.2 -35.48)"/><path class="cls-2" d="M88.83,114.31c-.94-1.14.18-3,.81-5.86.52-2.39.12-2.84.3-6.55a52.65,52.65,0,0,1,1.31-9.36c1.88-7,6.8-11.5,8.74-13.23A33.1,33.1,0,0,1,114.3,72a37.68,37.68,0,0,1,9.43-1.28c.87,0,2.25.1,5,.29l2.78.3a11.39,11.39,0,0,1,1.86.34l.58.17c.87.27,1,.3,1.11.41a1.62,1.62,0,0,1,.45.87h0l.6.3a21.72,21.72,0,0,1,2.26,1.41c1,.83.74,2.07,1.81,4.69a13.75,13.75,0,0,1,.88,2c-.05,0-.23-.21-.69-.62,0,0-.29-.26-.82-.64a15.23,15.23,0,0,0-3.32-1.52c-1.87-.72-2.82-1.08-4.08-1.44a32.19,32.19,0,0,0-10.39-1.14,31,31,0,0,0-5.09.71,31.5,31.5,0,0,0-13.6,7c-2.53,2.28-6.94,6.24-8.34,12.61a25.22,25.22,0,0,0,.08,11.14c.87,3.07,2.25,5.06,1.24,6.42-1.18,1.57-4.63,1.07-5.1,1C89.91,115,89.26,114.84,88.83,114.31Z" transform="translate(-13.2 -35.48)"/><path d="M100.07,110.7a12.11,12.11,0,0,0-9.23-2.25c-5.78,1.2-8.81,7.15-9.67,11.25-1,4.63-.26,12.24,5.85,15.74a13.44,13.44,0,0,0,15.52-2C108.92,127.28,106.36,115.4,100.07,110.7Z" transform="translate(-13.2 -35.48)"/><path d="M147.52,172.11a2.52,2.52,0,0,1,1.24-1.63c1.32-.62,2.81.47,3.36.87a3.45,3.45,0,0,1,1.63,2.2,2.59,2.59,0,0,1-.58,2.11c-1,1.07-2.85.46-3.07.39C148.52,175.49,147.14,173.72,147.52,172.11Z" transform="translate(-13.2 -35.48)"/><path d="M154.9,193.11a2.89,2.89,0,0,1,1.25-1.82,2.78,2.78,0,0,1,2.39,0,3.41,3.41,0,0,1,1.35,5.18,2.93,2.93,0,0,1-2.11,1.25,3,3,0,0,1-2.4-1.25A3.79,3.79,0,0,1,154.9,193.11Z" transform="translate(-13.2 -35.48)"/><path d="M156.43,215.55a3.91,3.91,0,0,1,2.11-1.63c.46-.14,1.73-.55,2.4.1s.26,2.09.1,2.59a4,4,0,0,1-1.83,2.3c-.16.09-1.91,1-2.87.19S155.84,216.55,156.43,215.55Z" transform="translate(-13.2 -35.48)"/><path class="cls-8" d="M121.69,160.73c0,.58.57,1.25,1.25,2s1,.8,1.51,1.34c1.15,1.19.73,2.07,1.51,3.18,1.19,1.72,3.74,1.86,5,1.93a6,6,0,0,0,4.28-.92c.67-.55.43-.75,1.76-2.18a24.92,24.92,0,0,0,1.92-2c.73-.94.65-1.13,1.09-1.42.88-.59,1.43,0,2.77-.34,1.5-.38,1.5-1.32,3-1.59a4.86,4.86,0,0,1,2.18.17,16.84,16.84,0,0,1,2.93,1.34,25,25,0,0,0,2.85.75c1,.29,2.37.76,4.61,1.43a2.42,2.42,0,0,0,1.92,0,1.7,1.7,0,0,0,.67-.84c.57-1.62-3-4.4-4.69-5.7-3.49-2.7-5.63-3.31-6.53-3.52-1.28-.3-3-.7-3.94.17a4.92,4.92,0,0,1-1.59,1.34,2.35,2.35,0,0,1-1,.25c-.78,0-1-.43-1.76-.67a3.33,3.33,0,0,0-3.09.67c-.56.49-.41.86-.84,1.26-1,1-3.14.23-3.94,0C128.53,155.92,121.8,158.91,121.69,160.73Z" transform="translate(-13.2 -35.48)"/></svg>