<svg id="Layer_2" data-name="Layer 2" xmlns="http://www.w3.org/2000/svg" xmlns:xlink="http://www.w3.org/1999/xlink" viewBox="0 0 219.78644 219.78644"><defs><style>.cls-1{fill:#00d932;}.cls-2{fill:#c3b2cb;}.cls-3{fill:url(#linear-gradient);}.cls-4{fill:#fcd932;}.cls-5{fill:#0066d4;}.cls-6{fill:url(#linear-gradient-2);}.cls-7{fill:#fff;}.cls-8{fill:url(#linear-gradient-3);}.cls-9{fill:url(#linear-gradient-4);}.cls-10{fill:#fc7632;}.cls-11{fill:url(#radial-gradient);}.cls-12{fill:#9a59ae;}</style><linearGradient id="linear-gradient" x1="60.0531" y1="140.95099" x2="86.08431" y2="186.03835" gradientUnits="userSpaceOnUse"><stop offset="0" stop-color="#f6ff00"/><stop offset="0.09641" stop-color="#f4f600"/><stop offset="0.25668" stop-color="#f0dc01"/><stop offset="0.45985" stop-color="#e9b302"/><stop offset="0.55211" stop-color="#e59e03"/><stop offset="0.86517" stop-color="#e5c500"/><stop offset="0.99438" stop-color="#bf6f00"/></linearGradient><linearGradient id="linear-gradient-2" x1="50.38754" y1="187.40707" x2="184.57029" y2="187.40707" gradientUnits="userSpaceOnUse"><stop offset="0" stop-color="#0066d4"/><stop offset="0.13764" stop-color="#0563dd"/><stop offset="0.36578" stop-color="#115bf7"/><stop offset="0.4292" stop-color="#1558ff"/><stop offset="0.74785" stop-color="#3f91ff"/><stop offset="0.99438" stop-color="#0050ff"/></linearGradient><linearGradient id="linear-gradient-3" x1="122.12011" y1="163.4626" x2="122.12011" y2="80.13604" gradientUnits="userSpaceOnUse"><stop offset="0" stop-color="#ff5a00"/><stop offset="0.02715" stop-color="#fd6305"/><stop offset="0.0723" stop-color="#f87d11"/><stop offset="0.12988" stop-color="#efa625"/><stop offset="0.19457" stop-color="#e3dd3f"/><stop offset="0.59701" stop-color="#dae62a"/><stop offset="0.99438" stop-color="#e2e500"/></linearGradient><linearGradient id="linear-gradient-4" x1="134.17907" y1="144" x2="134.17907" y2="112.74616" gradientUnits="userSpaceOnUse"><stop offset="0" stop-color="#ff7300"/><stop offset="0.198" stop-color="#fc7c00"/><stop offset="0.5271" stop-color="#f49600"/><stop offset="0.94455" stop-color="#e7bf00"/><stop offset="1" stop-color="#e5c500"/></linearGradient><radialGradient id="radial-gradient" cx="93.52679" cy="122.64801" r="13.58551" gradientUnits="userSpaceOnUse"><stop offset="0" stop-color="#2a2a2a"/><stop offset="1"/></radialGradient></defs><title>quacksounds-v5</title><rect class="cls-1" width="219.78644" height="219.78644" rx="109.89311"/><path class="cls-2" d="M154.16516,101.47816c.647-4.81482-1.517-8.87245-3.11133-11.47307-4.42628-7.22014-12.22807-19.94641-21.58494-18.4736-4.18808.65923-7.74514,3.8692-7.38944,5.05594.28658.95611,2.97729.1105,8.3268,1.64938,1.323.38058,2.52039.82409,5.28732,1.56968,1.74266.46958,2.71125.68264,3.098.78483,4.81406,1.27194,9.217,9.07335,11.40079,16.15112,1.48944,4.82727,1.73611,8.63566,2.59929,8.61608C153.46706,105.3432,153.96165,102.99262,154.16516,101.47816Z" transform="translate(-13.19824 -35.47837)"/><path d="M153.42886,98.72906a12.10363,12.10363,0,0,0-9.22206-2.24929c-5.78729,1.19834-8.81843,7.15278-9.67191,11.24643-.96566,4.63173-.26127,12.24244,5.84813,15.745a13.43212,13.43212,0,0,0,15.52006-2.02436C162.28059,115.3111,159.72476,103.42744,153.42886,98.72906Z" transform="translate(-13.19824 -35.47837)"/><path class="cls-3" d="M72.79417,133.74907c-3.91195,1.50816-7.398,5.714-8.60659,7.17215-.79724.96185-3.41194,4.23495-6.93309,14.10525a96.24985,96.24985,0,0,0-4.78144,17.45226c-2.06229,12.10567-3.09344,18.15851-.71721,20.5602,8.06134,8.14772,56.35042-10.97258,55.22563-33.47008C106.24042,144.74669,84.09721,129.39143,72.79417,133.74907Z" transform="translate(-13.19824 -35.47837)"/><path class="cls-4" d="M158.95287,156.7c1.8475-1.32292,5.58041.76576,11.47544,4.06423,6.38274,3.57135,10.11768,7.87559,13.388,11.71452,3.51559,4.1268,5.27339,6.19018,5.97679,9.08473.60877,2.50516-.1335,2.43489,0,11.9536.03407,2.42979.09656,3.44061-.47815,4.78145a9.9009,9.9009,0,0,1-6.694,5.25958C172.16885,205.17664,152.50829,161.31468,158.95287,156.7Z" transform="translate(-13.19824 -35.47837)"/><path class="cls-5" d="M178.79584,192.08264a3.6462,3.6462,0,0,0,1.67351-3.347c-.12894-.75742-.6-1.06749-1.67351-2.15165-2.30168-2.32447-3.67357-3.70994-3.82515-5.49865a13.69775,13.69775,0,0,1,.23907-2.86887,7.70746,7.70746,0,0,0,2.39072-.9563c.77129-.85608.05777-1.91374.71722-2.62979.15824-.17181.80078-.764,2.86885-.23906,4.68618,1.18949,7.92508,5.88959,8.12845,5.73772.15241-.11382-1.3231-3.42638-5.97679-8.84566-4.95717-5.7727-10.71313-12.29877-20.32112-14.82246-4.14218-1.088-6.4756-1.70093-7.6503-.47815C150.25259,161.30629,173.931,194.26039,178.79584,192.08264Z" transform="translate(-13.19824 -35.47837)"/><path class="cls-6" d="M66.432,161.24234a40.01544,40.01544,0,0,0-11.47545,12.43175,32.84594,32.84594,0,0,0-4.54237,15.06154,32.44876,32.44876,0,0,0,12.19267,26.537,30.72432,30.72432,0,0,0,7.88938,4.3033,152.556,152.556,0,0,0,36.81709,9.56288c9.1325.95189,22.02647-.40138,47.81441-3.10794a35.86968,35.86968,0,0,0,13.388-3.58607c1.9133-.97424,15.22645-7.99486,16.01782-19.12576.52792-7.42557-4.70639-14.01418-11.23639-22.23369-3.95407-4.97711-7.09738-7.50252-9.32381-13.62711-1.65915-4.56407-1.0265-6.22313-2.62979-9.32381-1.09044-2.10884-4.22853-6.84431-15.53967-10.041C122.87507,141.61331,85.91319,146.9817,66.432,161.24234Z" transform="translate(-13.19824 -35.47837)"/><path class="cls-7" d="M81.49353,142.35565c-3.208-3.98271-3.09339-9.42561-2.86887-10.99731,0-.00011.11165-.90645.9563-5.73773a44.46111,44.46111,0,0,1-4.78145-1.6735c-.76283-.37932-4.26848-2.12251-4.06422-3.82515.11341-.94536,1.26366-.98751,2.39072-2.39072,1.153-1.43549.86056-2.526,1.43443-4.78144,1.17471-4.61688,3.96151-6.184,3.10794-7.65031-.53619-.92108-1.67226-.3652-3.10794-1.6735-.153-.13944-1.90606-1.77817-1.6735-3.58608.19839-1.54234,1.65615-1.764,4.78144-4.78144,2.70766-2.61424,2.847-3.63883,2.86887-4.06423.05919-1.15065-.56874-1.26355-1.19537-3.58608-.58656-2.174-.1179-2.37722-.71722-4.06422-.69862-1.96653-1.49275-2.13311-1.43442-3.347a3.604,3.604,0,0,1,1.91257-2.86886c.96276-.49534,1.53645-.14,2.86886-.23907,2.274-.16908,5.04393-1.53427,5.25959-3.10794.144-1.05075-.97014-1.32338-1.91257-3.82515-.49729-1.32009-.79321-2.10562-.47815-2.86887.74415-1.80279,4.23923-1.88777,5.25958-1.91257a18.3474,18.3474,0,0,1,3.82516.47814c1.32341.207,8.11575,1.26909,8.84566-.47814.33916-.81187-.89907-1.58764-.47815-2.6298.36341-.89976,1.63269-1.17893,2.86887-1.43443a10.2885,10.2885,0,0,1,5.02051,0c2.92086.77195,3.8145,2.44294,5.02051,1.91258.63384-.27874.433-.76054,1.67351-2.62979.942-1.41941,1.54482-2.30286,2.62979-2.71588a3.9811,3.9811,0,0,1,2.62979,0c2.46736.92034,3.20123,4.41281,3.347,5.1066.49634,2.36207-.081,3.894.71722,4.30329.62819.32214,1.12672-.55436,2.62979-.71722a5.34186,5.34186,0,0,1,4.06422,1.43444,9.30545,9.30545,0,0,1,1.91258,3.10794,7.03292,7.03292,0,0,0-.47814,2.39071c.4701,1.04155,2.56736.15882,3.82514,1.43444.66.66939.26651,1.0991.9563,3.10793.5161,1.503,1.05162,3.06257,2.39072,3.82516,1.04051.59254,1.536.11721,2.62979.71721a5.42268,5.42268,0,0,1,2.15164,2.86886c1.90969,4.18923,2.52782,3.36434,3.82515,6.694a61.05151,61.05151,0,0,1,1.67351,6.93308,48.1755,48.1755,0,0,1,.95628,5.02051c.2179,2.93074-.3036,4.02806.47815,5.73773a7.20757,7.20757,0,0,0,2.62979,2.86886c5.3454,4.2815-4.3477,44.75315-24.86347,47.33626-10.50782,1.323-17.14911-2.46521-17.1492-2.46525-2.93086-1.67179-7.36645-5.19658-8.9383-3.94336-.78189.62339-.46172,2.1154-1.12388,2.25975-.65046.1418-1.20674-1.244-3.34527-3.31131a5.78709,5.78709,0,0,0-1.78877-1.40332c-1.00866-.38794-1.72777-.11106-3.94232.31608-3.72312.71811-4.29258.43737-4.52166.29856-1.01916-.61756-.882-1.80733-1.396-3.22106C87.519,145.1198,84.43344,146.00555,81.49353,142.35565Z" transform="translate(-13.19824 -35.47837)"/><path class="cls-7" d="M123.09206,161.00327c.0631,3.9098,5.09288,4.67364,10.99731,11.71453,6.05034,7.21489,7.89276,14.90786,8.84567,18.88669,4.45551,18.60382-4.42906,33.21691.71721,36.09987.69417.38887,2.46449.10516,5.97681-.47813,7.92526-1.31617,11.88789-1.97425,14.10524-3.347,10.76219-6.663,3.24487-36.32815,2.15166-40.64224a79.23366,79.23366,0,0,0-6.93309-17.69133c-4.94187-9.22669-7.74984-14.46932-13.388-16.2569C135.9926,146.25388,122.99,154.67642,123.09206,161.00327Z" transform="translate(-13.19824 -35.47837)"/><path class="cls-8" d="M102.05373,144.02916c-2.53267-6.76753-7.4673-5.69644-9.08474-12.43175-1.22978-5.121.07965-10.35938.47815-11.9536,1.21462-4.85916,2.44073-4.55694,3.347-8.60659,1.60559-7.17447-1.95927-9.38977,0-14.82246,1.64637-4.565,5.63974-7.09417,7.6503-8.36752,2.86262-1.813,4.12592-1.66725,11.71453-3.82515,10.84474-3.08382,11.03171-4.16826,14.10525-3.82516,5.9156.66036,9.89365,5.199,12.67082,8.36752a36.89575,36.89575,0,0,1,8.36753,17.69133c2.18765,12.47787-3.72965,15.20285-4.3033,32.75287-.393,12.024,2.25676,14.65492-.71723,18.88669-5.93055,8.43875-25.02137,5.29065-29.884,3.347a60.49215,60.49215,0,0,0-5.72049-2.08327c-4.06919-1.24815-4.48769-.89264-5.52071-1.57734C101.79765,155.35519,104.44435,150.41713,102.05373,144.02916Z" transform="translate(-13.19824 -35.47837)"/><path class="cls-7" d="M141.70946,108.13883c-.02071.07225.10853.1611.16015.48045a1.60869,1.60869,0,0,1-.05337.694c-.12932.44009-.31227.4155-.42708.80076a1.15683,1.15683,0,0,0,.05339.90752c.16985.2645.40547.23495.48045.48045.07529.24649-.12654.39328-.05339.58721.08829.23407.47055.25432.74738.32031,1.10251.26282,1.21817,1.4146,2.02856,1.49474.46122.0456.7791-.29232,1.12107-.53384,1.34024-.9466,3.22868-.53834,4.4842-.26692,3.50254.7572,5.41246,3.65,5.87218,3.2564.21756-.18627-.11984-.91152-.3203-1.33459a9.822,9.822,0,0,0-3.36316-3.84361C147.69753,108.04124,141.838,107.69036,141.70946,108.13883Z" transform="translate(-13.19824 -35.47837)"/><path class="cls-9" d="M130.74237,112.77052c3.589.10751,6.88417,1.96241,12.43174.71722a19.3072,19.3072,0,0,1,5.9768-.71722,10.24054,10.24054,0,0,1,5.9768,1.67351c2.11017,1.559,3.86682,4.52113,3.347,7.17216-.3797,1.93647-1.63233,1.96415-2.39072,4.54236-.55258,1.87854-.10574,2.6054-.23907,5.02051-.1211,2.19315-.27436,4.96854-1.91257,7.17217a10.68175,10.68175,0,0,1-8.84569,3.82515c-2.123-.13686-2.94819-.94892-5.02051-.47814-1.83464.41678-2.25671,1.29608-4.06422,1.91257-1.811.61766-3.366.40988-5.73773,0-7.14495-1.23479-10.71741-1.85217-13.149-3.10793-3.63022-1.8748-6.03062-3.11447-6.93309-5.49865C107.3957,127.6428,120.05534,112.4504,130.74237,112.77052Z" transform="translate(-13.19824 -35.47837)"/><path class="cls-10" d="M254.34259,102.90878" transform="translate(-13.19824 -35.47837)"/><path class="cls-7" d="M111.111,100.34718a5.91481,5.91481,0,0,1,.83539-4.38578,4.99854,4.99854,0,0,1,3.34154-1.87963,5.718,5.718,0,0,1,4.38579,1.87963,8.53662,8.53662,0,0,1,2.50616,6.47425c-.05709.89261-.2653,4.14781-2.50616,5.22117-2.3555,1.12828-5.32309-.93684-6.6831-2.50616A8.23942,8.23942,0,0,1,111.111,100.34718Z" transform="translate(-13.19824 -35.47837)"/><path class="cls-7" d="M137.42563,90.21806c-.20982.16864-.49245.51064-.5874,1.76218a10.00487,10.00487,0,0,0,.46992,3.7985,13.6829,13.6829,0,0,0,1.80135,3.60271,32.87955,32.87955,0,0,0,2.66285,3.0153,2.266,2.266,0,0,0,2.62372.54823c.92687-.539.81378-2.19181.744-3.21109a12.83169,12.83169,0,0,0-2.03632-5.71733c-1.80775-3.20044-3.04895-3.70756-3.40689-3.83767C139.393,90.06843,138.16646,89.62263,137.42563,90.21806Z" transform="translate(-13.19824 -35.47837)"/><path class="cls-7" d="M104.99044,103.24512a2.60977,2.60977,0,0,1,.29741-1.30116,25.859,25.859,0,0,0,1.56139-3.27149c.02916-.079.52864-1.4496.26023-1.59857-.15018-.08336-.45267.26472-.55764.18588-.15281-.11478.31807-.98032.37177-1.07811,1.02548-1.86751,2.0245-3.1528,1.896-3.27149-.05966-.05509-.30218.19665-.9294.44611-.37115.14762-.73452.29215-.81787.18589-.15284-.19486.55332-1.33819,1.37551-1.896a1.114,1.114,0,0,0,.55765-.632c.04533-.21586-.03772-.3779.07435-.52047a.60467.60467,0,0,1,.48329-.14871c.97573-.00867,1.49677-.01329,1.52421-.11152.0323-.11561-.58945-.46634-1.04092-.66917-.234-.10513-.44477-.18065-.44612-.29741-.00127-.11058.18556-.19946.33459-.26023a5.48387,5.48387,0,0,1,1.97047-.30618c.57031-.01917.86214-.02875,1.18949-.02841,1.06386.00111,1.24093.07188,1.37552.18588.05941.05034.18211.1697.37175,1.07811.19012.91066.281,1.36989.07436,1.56139-.19081.17686-.40107.00455-.96658.18588a4.03828,4.03828,0,0,0-.66917.33459,7.68964,7.68964,0,0,1-1.44987.37176,2.40309,2.40309,0,0,0-1.15245,1.44986c-1.91281,4.44154-1.62253,3.54313-1.896,4.3496-.91308,2.69285-.99061,3.39325-1.8588,4.31242-.53208.56333-1.51209,1.36864-1.82163,1.15246C105.00808,103.58849,104.99965,103.44552,104.99044,103.24512Z" transform="translate(-13.19824 -35.47837)"/><path class="cls-7" d="M134.33717,84.95466c.15541-.302.62308-.42937,1.55843-.68418.17039-.04642.31827-.079.41811,0,.22308.17656-.08916.6766.19006,1.06428.00833.01156.18947.25708.3801.22807.16682-.02538.17717-.23608.38009-.30409a.62347.62347,0,0,1,.49414.114c.23508.14622.24393.306.41812.49413.22545.24343.41114.19223.83623.38011.60066.26548,1.09828.75151,1.02628.91224-.05439.12141-.41146.00743-.45613.114-.06.14311.52217.49472,1.14032.91226,1.97775,1.33593,2.07957,1.83091,2.09057,2.01455a1.55038,1.55038,0,0,0,.114.57015,1.507,1.507,0,0,0,.34209.49413c.92029.91544,1.60377,2.04189,2.43266,3.04083.84309,1.01609.97626,1.19072.95026,1.21634a12.77615,12.77615,0,0,1-1.74848-1.48241c-5.08093-4.56831-7.02292-5.71882-7.488-6.38574a.83937.83937,0,0,0-.41813-.3421c-.307-.0998-.55246.07507-.7602.114C135.40613,87.58132,133.90239,85.79945,134.33717,84.95466Z" transform="translate(-13.19824 -35.47837)"/><path class="cls-7" d="M128.0551,108.64333c-1.22142-.44617-2.412.19577-3.98911,1.04062-8.2212,4.404-7.207,3.74768-8.036,4.27817-4.64868,2.975-6.973,4.46245-7.86256,5.49223-.00007.00007-1.85121,2.143-3.64221,8.15163-.04409.14789-.25332.87067,0,1.04063.46965.31509,2.036-1.60106,2.54376-1.27188.18889.12243.1047.47345.05781,1.04063-.01578.19093-.22959,3.162,1.21408,4.56723.25557.24876.39854.31024.52031.28906.54052-.094.37243-1.65587,1.03717-1.90718.592-.22381,1.18549.84093,1.85268.623.4243-.13863.51947-.67874.83652-1.48714a21.91,21.91,0,0,1,1.39419-2.50954c4.84794-8.76313,9.217-11.08013,9.21707-11.08017,2.11693-1.12266,3.94048-2.78022,6.12817-3.75785a1.64739,1.64739,0,0,0,.86719-.75156C130.72426,111.27843,129.57166,109.1973,128.0551,108.64333Z" transform="translate(-13.19824 -35.47837)"/><path d="M115.13461,100.84019a1.58784,1.58784,0,0,1,.22425-1.17732,1.34184,1.34184,0,0,1,.897-.50456,1.53493,1.53493,0,0,1,1.17731.50456,2.29159,2.29159,0,0,1,.67276,1.73795c-.01533.23961-.07122,1.11344-.67276,1.40157-.6323.30287-1.42892-.25149-1.794-.67275A2.21177,2.21177,0,0,1,115.13461,100.84019Z" transform="translate(-13.19824 -35.47837)"/><path d="M139.54237,93.83538c-.082.06592-.1925.19961-.22961.68884a3.91085,3.91085,0,0,0,.18369,1.48485,5.34882,5.34882,0,0,0,.70415,1.40831,12.85407,12.85407,0,0,0,1.04092,1.17869.8858.8858,0,0,0,1.02562.21431c.36232-.21071.31811-.85679.29085-1.25523a5.01593,5.01593,0,0,0-.796-2.23492c-.70666-1.25106-1.19185-1.4493-1.33177-1.50016C140.31142,93.77689,139.832,93.60263,139.54237,93.83538Z" transform="translate(-13.19824 -35.47837)"/><path class="cls-2" d="M88.827,114.31245c-.93365-1.14668.18781-2.986.81522-5.861.52258-2.39464.12161-2.84636.29432-6.55166a52.83035,52.83035,0,0,1,1.31494-9.3593c1.88072-7.00835,6.80175-11.5,8.74051-13.22677a33.05564,33.05564,0,0,1,14.30967-7.27086,37.66154,37.66154,0,0,1,9.43206-1.28595c.86969.0135,2.24392.107,4.99239.29388.2451.01667,1.09218.10814,2.7858.29551a11.88061,11.88061,0,0,1,1.85431.34c.05726.01581.2324.069.58268.17526.87508.26556.9933.3016,1.10739.40769a1.60537,1.60537,0,0,1,.454.87127l0,0,.59662.29831a22.86,22.86,0,0,1,2.26083,1.40637c1.05654.83249.74567,2.07118,1.81638,4.69888a14.92816,14.92816,0,0,1,.87884,2.02715c-.05435.033-.231-.21272-.68863-.618-.00007-.00007-.29637-.26249-.82135-.64152a15.34617,15.34617,0,0,0-3.319-1.52577c-1.87861-.71524-2.82255-1.07463-4.08526-1.43341a32.18373,32.18373,0,0,0-10.39232-1.14675,30.86614,30.86614,0,0,0-5.08866.71671,31.49256,31.49256,0,0,0-13.598,7.0291c-2.53246,2.2736-6.94078,6.24148-8.33766,12.6111a25.22192,25.22192,0,0,0,.07736,11.13834c.86686,3.0735,2.24862,5.06013,1.23551,6.41846-1.17117,1.57025-4.623,1.06765-5.09586.9927C89.90739,114.947,89.26014,114.84444,88.827,114.31245Z" transform="translate(-13.19824 -35.47837)"/><path class="cls-11" d="M100.06569,110.699a12.10365,12.10365,0,0,0-9.22206-2.24929c-5.78729,1.19834-8.81844,7.15278-9.67192,11.24643-.96566,4.63173-.26126,12.24244,5.84813,15.745a13.43211,13.43211,0,0,0,15.52006-2.02436C108.91741,127.281,106.36158,115.39735,100.06569,110.699Z" transform="translate(-13.19824 -35.47837)"/><path d="M147.51537,172.11441a2.54323,2.54323,0,0,1,1.24658-1.63014c1.31418-.6256,2.81.46487,3.35618.863a3.45151,3.45151,0,0,1,1.63015,2.20547,2.58055,2.58055,0,0,1-.57535,2.10961c-1.04222,1.06741-2.85205.45973-3.0685.38356C148.52139,175.4888,147.14391,173.71834,147.51537,172.11441Z" transform="translate(-13.19824 -35.47837)"/><path d="M154.899,193.1145a2.85069,2.85069,0,0,1,1.24658-1.82191,2.80878,2.80878,0,0,1,2.39727,0,3.39895,3.39895,0,0,1,1.34248,5.1781,2.9289,2.9289,0,0,1-2.1096,1.24658,3.00423,3.00423,0,0,1-2.39728-1.24658A3.78517,3.78517,0,0,1,154.899,193.1145Z" transform="translate(-13.19824 -35.47837)"/><path d="M156.43323,215.553a3.8301,3.8301,0,0,1,2.10959-1.63014c.45715-.14743,1.72284-.55563,2.39727.0959.71708.69272.25832,2.09319.09589,2.589a3.938,3.938,0,0,1-1.82191,2.30138c-.16227.08725-1.91379,1.00194-2.87674.19179C155.42769,218.33565,155.83562,216.54776,156.43323,215.553Z" transform="translate(-13.19824 -35.47837)"/><path class="cls-12" d="M121.6858,160.72935c-.03763.57641.57274,1.25274,1.25652,2.01042.65836.7295.98682.8004,1.50782,1.34028,1.14967,1.19133.73462,2.07331,1.50781,3.18317,1.19279,1.71214,3.74219,1.85481,5.02606,1.92665a5.9635,5.9635,0,0,0,4.27216-.92143c.67043-.55078.43532-.75214,1.75911-2.178a25.69727,25.69727,0,0,0,1.92667-2.01043c.72415-.93534.64494-1.12774,1.089-1.424.87869-.58638,1.43109.0054,2.76433-.33507,1.50387-.38405,1.50714-1.31734,3.01564-1.59158a4.92412,4.92412,0,0,1,2.178.16754,17.04368,17.04368,0,0,1,2.93187,1.34027,25.26071,25.26071,0,0,0,2.8481.7539c.98335.2896,2.37274.76209,4.60722,1.42406a2.39339,2.39339,0,0,0,1.92665,0,1.67121,1.67121,0,0,0,.67014-.83768c.56564-1.62-3.01509-4.39665-4.691-5.69619-3.48974-2.70606-5.63156-3.30828-6.53387-3.51825-1.2816-.29825-3.00089-.69835-3.93709.16754a4.88944,4.88944,0,0,1-1.59158,1.34029,2.45808,2.45808,0,0,1-1.00522.25129c-.78153.0094-1.02639-.4315-1.75911-.67013a3.341,3.341,0,0,0-3.09941.67013c-.55736.4914-.40955.85385-.83768,1.25652-1.0228.962-3.13973.22961-3.93707,0C128.53177,155.92461,121.80469,158.90835,121.6858,160.72935Z" transform="translate(-13.19824 -35.47837)"/></svg>